<svg xmlns="http://www.w3.org/2000/svg" xmlns:xlink="http://www.w3.org/1999/xlink" xml:space="preserve" version="1.1" viewBox="0 0 3000 2000"><style type="text/css">.st1{fill:#fff}.st2{fill:#4c4a59}.st3{fill:#eac5bb}.st4{fill:#cea196}.st6{fill:#35416d}.st9{fill:#1c2644}.st10,.st12{clip-path:url(#a);fill:#125d82}.st12{fill:#f7b728}.st17{opacity:.1;fill:#35416d}.st18{fill:#125d82}.st19{fill:#f7b728}.st20{fill:#fd5d4d}.st21{fill:#2f73a5}.st23{fill:#ffccb0}.st25{opacity:.39;fill:#fff}.st27{fill:#4b3f84}.st28{fill:#43c1e8}</style><path d="M1417.4 152.33c-231.13 194.84-513.9-14.76-742.01 199.43s-164.75 381.67-275.64 659.11-281.98 326.75-313.66 489.02 93.85 226.92 221.78 217.89c253.46-9.03 2367 0 2367 0s199.29-162.71 173.94-292.92-133.07-66.35-316.83-316.89-72.04-117.81-165.69-402.9 65.22-292.89-264.74-469.47-449.06-281.44-684.15-83.27z" style="opacity:.5;fill:#b2e2f5"/><path d="M2188.5 236.32c-14.36-37.26-48.64-60.97-85.99-63.67-24.74-40.05-75.23-58.12-120.76-40.57-16.01 6.17-29.52 16.02-39.93 28.21-29.03-9.87-64.84-9.25-99.68 4.18-66.43 25.6-104.2 88.05-84.38 139.49 18.3 47.48 79.29 68.97 140.81 51.86 29.5 33.13 86.6 43.64 141.34 22.54 8.44-3.25 16.42-7.11 23.88-11.45 21.23 7.1 44.96 7.13 67.48-1.55 51.43-19.84 77.05-77.6 57.23-129.04zM770.28 596.96c-16.28-42.19-55.12-69.04-97.45-72.1-28.04-45.36-85.26-65.82-136.86-45.94-18.15 6.99-33.45 18.14-45.26 31.94-32.91-11.18-73.48-10.48-112.98 4.73-75.29 29-118.1 99.72-95.64 157.96 20.74 53.77 89.86 78.1 159.59 58.72 33.43 37.52 98.15 49.42 160.19 25.53 9.57-3.69 18.61-8.05 27.06-12.97 24.06 8.04 50.96 8.07 76.48-1.76 58.29-22.45 87.33-87.86 64.87-146.11zM2546.4 920.37c-14.36-37.26-48.64-60.97-85.99-63.67-24.74-40.05-75.23-58.12-120.76-40.57-16.01 6.17-29.52 16.02-39.93 28.21-29.03-9.87-64.84-9.25-99.68 4.18-66.43 25.6-104.2 88.05-84.38 139.49 18.3 47.48 79.29 68.97 140.81 51.86 29.5 33.13 86.6 43.64 141.34 22.54 8.44-3.25 16.42-7.11 23.88-11.45 21.23 7.1 44.96 7.13 67.48-1.55 51.43-19.84 77.06-77.6 57.23-129.04z" class="st1"/><path d="M2072.5 1330s-32.75 123.7-35.63 189.22 8.64 147.26 13.68 148.87c14.4.89 21.6.55 31.68 0 4.32-8.47 38.91-200.71 49.33-216.55 10.43-15.84 19.9 200.56 37.95 216.55 13.51-3.43 35.11 0 35.11 0s46.94-233.77 10.87-334.6c-39.66 1.42-142.99-3.49-142.99-3.49z" class="st2"/><path d="m2213.7 1099.5.46-21.45s-41.17-3.08-41.55-2.18-17.26 13.08-17.26 13.08l13.29 31.72 45.06-21.17z" class="st3"/><path d="m2166.5 1080.8 30.6 24.1 16.6-5.4 1.5-22.9z" class="st4"/><path d="M2186.7 983.54c8.42-3.82 41.35.67 45.86 13.31 2.69 7.54 10.11 26.65 1.87 38.9 10.01-2.46 9.31 10.12 8.46 12.49-1.98 5.52-6.56 10.91-14.11 14.58-2.29 1.11-7.34 2.13-7.02-1.56-4.47 20.79-7.67 19.11-27.84 30.13-11.05 6.04-36.73-9.79-39.93-18.28-3.19-8.48 17.48-82.66 32.71-89.57z" class="st3"/><path d="M2233.1 987.18c-3.76-5.49-16.68-12.58-24.97-16.02-8.29-3.43-25.69 1.41-29.16 3.54-1.42.87-2.87 4.09-3.61 7.5-.03-.02-.05-.04-.05-.04s-10.35 29.22-8.07 33.23c1.74-1.72 7.16-24.25 16.61-23.67 11.33 1.15 34.02 7.3 37.76 10.7 4.46 4.06 3.16 20.52-.42 25.05-1.49 1.88-.67 22.19.43 19.5 2.47-6.02 16.95-13.52 16.95-13.52 20.25-9.75-1.72-40.79-5.47-46.27z" style="fill:#373543"/><path d="M2215.5 1025c2.13-1.04-17.58-8.19-20.74-5.82s-22.61 27.32-20.97 30.85c1.63 3.54 10.1 1.71 10.1 1.71s11.99-24.13 12.97-25.14c.97-1.01 9.3 2.95 18.64-1.6z" class="st4"/><path d="M1216.4 1351.5s-241.69 120.95-137.73 353.49c5 11.19 29.22 11.04 34.03-.19 24.96-58.27 78.42-167.1 139.59-194.68 84.66-38.19-35.89-158.62-35.89-158.62zM1706.6 1351.4s241.5 121.11 137.19 353.58c-5.02 11.19-29.24 11.02-34.03-.21-24.87-58.29-78.16-167.15-139.29-194.78-84.6-38.24 36.13-158.59 36.13-158.59z" class="st6"/><linearGradient id="g" x1="1680.6" x2="1869.9" y1="1532.3" y2="1532.3" gradientUnits="userSpaceOnUse"><stop offset="0" stop-color="#fff" stop-opacity=".4"/><stop offset="1" stop-color="#fff"/></linearGradient><path d="M1706.6 1351.4s-12.09 12.05-25.93 29.73c13.2 6.86 223.71 120.26 145.19 332.12 7.55.27 15.32-2.47 17.93-8.28 104.31-232.46-137.19-353.57-137.19-353.57z" style="opacity:.3;fill:url(#g)"/><linearGradient id="f" x1="-1038.3" x2="-849.08" y1="1532.3" y2="1532.3" gradientTransform="matrix(-1 0 0 1 203.59 0)" gradientUnits="userSpaceOnUse"><stop offset="0" stop-color="#fff" stop-opacity=".4"/><stop offset="1" stop-color="#fff"/></linearGradient><path d="M1216 1351.4s12.09 12.05 25.93 29.73c-13.2 6.86-223.71 120.26-145.19 332.12-7.55.27-15.32-2.47-17.93-8.28C974.5 1472.51 1216 1351.4 1216 1351.4z" style="opacity:.3;fill:url(#f)"/><path d="M1602 1553.7s43.76 28.31 53.96 72.94c2.16 9.47-5.21 18.49-15.35 18.49H1290.3c-10.13 0-17.51-9.02-15.35-18.49 10.2-44.63 53.96-72.94 53.96-72.94" class="st9"/><path d="m1624.7 1562.2-320.72-.16c-2.59 0-4.69-2.1-4.68-4.69l.02-39.73 330.09.16-.02 39.73c0 2.59-2.1 4.69-4.69 4.69z" class="st9"/><defs><path id="e" d="m1629.1 1517.6-330.84-.17c-219.58-396.17-188.47-695.77-97.51-899.71 11.32-25.3 23.46-49.14 36.3-71.54 4.42-7.79 8.9-15.37 13.45-22.74 3.45-5.65 6.9-11.16 10.42-16.61 80.45-124.31 173.03-194.95 197.28-212.24 3.64-2.6 8.49-2.59 12.13.01 24.23 17.3 116.66 87.97 196.92 212.23 3.58 5.45 7.03 10.97 10.47 16.62 4.55 7.38 9.02 14.96 13.43 22.69 12.81 22.48 25.07 46.41 36.36 71.85 90.77 204.04 121.57 503.67-98.41 899.61z"/></defs><clipPath id="a"><use xlink:href="#e"/></clipPath><path d="M947.63 164.21h437.81v458.03H947.63zM947.83 819.43h437.81v458.03H947.83z" class="st10"/><path d="M1084 952.8c8.94 0 15.62-8.38 13.44-17.05-.18-.7-.31-1.42-.47-2.13-.13-.61-.28-1.22-.4-1.84-.17-.87-.29-1.76-.43-2.64-.09-.59-.2-1.17-.27-1.76-.13-.99-.2-1.99-.29-2.99-.04-.5-.11-1-.14-1.5-.1-1.51-.15-3.03-.15-4.57 0-40.92 34.45-73.79 75.93-71.19 4.51.28 8.9.99 13.15 2.09 2.12.55 4.21 1.19 6.25 1.93a79 79 0 0 1 3.03 1.17c10 4.14 18.88 10.51 26.02 18.46 2.14 2.39 4.12 4.92 5.93 7.57a69.93 69.93 0 0 1 3.38 5.47c5.23 9.38 8.41 20.03 8.9 31.3.08 1.75.09 3.48.04 5.2-.02.58-.08 1.15-.11 1.72-.06 1.13-.11 2.27-.22 3.39-.07.68-.18 1.34-.27 2.02-.13 1-.25 2-.42 2.99-.12.71-.28 1.4-.43 2.1-.19.93-.37 1.87-.6 2.79-.03.12-.05.25-.08.38-2.18 8.69 4.46 17.09 13.42 17.09h136.15v-84.01c0-9.29 9-16 17.86-13.21.12.04.23.07.35.1l.6.18c1.4.42 2.82.8 4.26 1.13.16.04.31.08.47.11 1.49.34 3.01.61 4.54.85.3.05.59.09.89.14 1.51.22 3.04.39 4.58.51.26.02.53.03.79.05 1.57.11 3.15.17 4.75.18h.19c1.09 0 2.18-.02 3.28-.07.09 0 .18-.01.26-.02.41-.02.82-.06 1.23-.09.77-.05 1.54-.11 2.31-.18.55-.05 1.09-.12 1.63-.19.58-.07 1.17-.14 1.75-.23a77.994 77.994 0 0 0 3.18-.55c.9-.18 1.8-.37 2.69-.58l.23-.06c27.05-6.54 48.38-28.75 53.52-56.35.13-.71.27-1.41.38-2.13.06-.38.1-.77.16-1.16.11-.81.22-1.61.3-2.43.04-.42.07-.83.11-1.25.04-.52.1-1.03.13-1.55.01-.23.01-.46.02-.69.03-.64.05-1.28.07-1.91.02-.64.03-1.27.03-1.91s-.02-1.27-.03-1.91c-.02-.64-.03-1.28-.07-1.91-.04-.75-.09-1.49-.16-2.24-.04-.42-.06-.84-.11-1.25-.08-.81-.19-1.62-.3-2.43-.05-.39-.1-.77-.16-1.16-.11-.72-.25-1.43-.38-2.14-5.12-27.74-26.28-49.84-53.51-56.34l-.23-.06c-.89-.21-1.79-.4-2.69-.58-.36-.07-.71-.13-1.07-.2-.7-.13-1.4-.25-2.11-.35-.58-.09-1.17-.16-1.75-.23-.54-.07-1.08-.14-1.63-.19-.77-.08-1.54-.13-2.31-.18-.41-.03-.82-.07-1.23-.09-.27-.01-.54-.01-.81-.02-.92-.04-1.85-.07-2.78-.07-.45 0-.89.04-1.34.05a77.248 77.248 0 0 0-8.12.61c-1.01.13-2 .29-2.99.47-.81.14-1.63.29-2.43.46-.99.21-1.96.45-2.93.7-.78.2-1.57.4-2.34.63-.3.09-.61.15-.91.24-9.01 2.78-18.19-3.69-18.19-13.12v-84h-366.92c-39 0-70.61 31.61-70.61 70.61V952.8H1084z" style="clip-path:url(#a);fill:#fd5d4d"/><path d="M1822.9 945.72h-149.21c-8.95 0-15.6 8.39-13.42 17.07a71.693 71.693 0 0 1 2.06 20.57c-1.6 36.06-30.64 65.7-66.66 67.96h-8.83c-37.42-2.19-67.1-33.22-67.1-71.19 0-5.99.74-11.81 2.14-17.38 2.17-8.67-4.5-17.04-13.44-17.04h-123.05v77.81c0 9.31-9.03 16.01-17.91 13.2-.53-.17-1.07-.32-1.6-.47l-.71-.21c-1.57-.44-3.15-.82-4.76-1.15-.27-.06-.55-.11-.82-.17a78.69 78.69 0 0 0-4.88-.78l-.79-.09c-1.69-.19-3.39-.33-5.11-.4-.19-.01-.38-.01-.57-.01-1.81-.06-3.64-.06-5.49.02-36.1 1.56-65.82 30.68-68.04 66.74-.16 2.59-.18 5.15-.07 7.68.5 11.38 3.66 22.07 8.88 31.46.96 1.73 2.01 3.4 3.11 5.04 1.62 2.41 3.37 4.73 5.26 6.92 1.08 1.25 2.21 2.46 3.38 3.63.82.82 1.65 1.63 2.51 2.41 1.33 1.22 2.69 2.4 4.11 3.52 2.8 2.2 5.76 4.19 8.88 5.96 1.37.78 2.78 1.49 4.2 2.18 1.81.87 3.66 1.69 5.55 2.41 7.89 3.01 16.45 4.65 25.4 4.65 1.84 0 3.66-.07 5.47-.21.6-.05 1.19-.14 1.79-.2 1.19-.12 2.39-.23 3.56-.41.71-.11 1.4-.27 2.1-.4 1.05-.19 2.1-.37 3.13-.6.74-.17 1.46-.39 2.19-.59.97-.26 1.94-.49 2.89-.79.05-.02.1-.02.15-.04 9.02-2.82 18.22 3.66 18.22 13.11v90.36h2.07v112.68h435.32v-179.05c.08-1.4.14-2.82.14-4.24V945.72z" class="st12"/><path d="M1686.6 1265.8c-8.94 0-15.62 8.67-13.44 17.65.18.73.31 1.47.47 2.2.13.64.28 1.26.4 1.9.17.9.29 1.82.43 2.74.09.61.2 1.21.27 1.82.13 1.02.2 2.06.29 3.09.04.52.11 1.03.14 1.56.1 1.56.15 3.14.15 4.73 0 42.36-34.45 76.38-75.93 73.7a68.12 68.12 0 0 1-13.15-2.16c-2.12-.57-4.21-1.24-6.25-2-1.02-.38-2.03-.79-3.03-1.22-10-4.28-18.88-10.88-26.02-19.11a74.624 74.624 0 0 1-5.93-7.84 71.629 71.629 0 0 1-3.38-5.66 74.88 74.88 0 0 1-8.9-32.41c-.08-1.81-.09-3.6-.04-5.38.02-.6.08-1.19.11-1.78.06-1.17.11-2.35.22-3.51.07-.7.18-1.39.27-2.09.13-1.04.25-2.07.42-3.1.12-.73.28-1.45.43-2.17.19-.97.37-1.94.6-2.89.03-.13.05-.26.08-.39 2.18-8.99-4.46-17.69-13.42-17.69h-136.15v86.96c0 9.62-9 16.56-17.86 13.67-.12-.04-.23-.07-.35-.11l-.6-.18c-1.4-.43-2.82-.83-4.26-1.17l-.47-.12c-1.49-.35-3.01-.64-4.54-.88-.3-.05-.59-.1-.89-.14-1.51-.23-3.04-.41-4.58-.53-.26-.02-.53-.03-.79-.05-1.57-.11-3.15-.18-4.75-.18h-.19c-1.09 0-2.18.03-3.28.08-.09 0-.18.01-.26.02-.41.02-.82.06-1.23.09-.77.05-1.54.11-2.31.19-.55.06-1.09.13-1.63.2-.58.08-1.17.15-1.75.24-.71.11-1.41.23-2.12.36-.35.07-.71.13-1.06.2-.9.18-1.8.38-2.69.6l-.23.06c-27.05 6.77-48.38 29.77-53.52 58.33-.13.73-.27 1.46-.38 2.2-.06.4-.1.8-.16 1.2-.11.83-.22 1.67-.3 2.51-.04.43-.07.86-.11 1.29-.04.53-.1 1.06-.13 1.6-.01.24-.01.47-.02.71-.03.66-.05 1.32-.07 1.98s-.03 1.32-.03 1.97c0 .66.02 1.32.03 1.97.02.66.03 1.32.07 1.98.04.78.09 1.55.16 2.32.04.43.06.86.11 1.29.08.84.19 1.68.3 2.51.05.4.1.8.16 1.2.11.74.25 1.48.38 2.22 5.12 28.72 26.28 51.59 53.51 58.32l.23.06c.89.22 1.79.42 2.69.6l1.07.21c.7.13 1.4.26 2.11.36.58.09 1.17.16 1.75.24.54.07 1.08.14 1.63.2.77.08 1.54.14 2.31.19.41.03.82.07 1.23.09.27.01.54.01.81.02.92.04 1.85.08 2.78.08.45 0 .89-.04 1.34-.05a72.052 72.052 0 0 0 5.62-.34c.84-.08 1.67-.18 2.5-.29 1.01-.14 2-.3 2.99-.48.81-.15 1.63-.3 2.43-.48.99-.22 1.96-.47 2.93-.72.78-.21 1.57-.42 2.34-.65.3-.09.61-.16.91-.25 9.01-2.88 18.19 3.81 18.19 13.58v86.95h366.92c39 0 70.61-32.72 70.61-73.09v-269.12H1686.6z" class="st10"/><path d="M1367.4 1503.7c-.05.02-.1.02-.15.04-.95.29-1.93.53-2.89.79-.73.19-1.45.42-2.19.59-1.03.24-2.08.41-3.13.6-.7.13-1.39.29-2.1.4-1.17.18-2.37.29-3.56.41-.6.06-1.19.16-1.79.2-1.81.14-3.63.21-5.47.21-8.95 0-17.51-1.65-25.4-4.65a72.05 72.05 0 0 1-5.55-2.41c-1.42-.69-2.83-1.4-4.2-2.18a72.061 72.061 0 0 1-8.88-5.96c-1.42-1.12-2.78-2.3-4.11-3.52-.86-.78-1.69-1.59-2.51-2.41a72.55 72.55 0 0 1-3.38-3.63 72.418 72.418 0 0 1-5.26-6.92c-1.1-1.64-2.15-3.31-3.11-5.04a71.013 71.013 0 0 1-8.88-31.46c-.11-2.53-.09-5.09.07-7.68 2.23-36.06 31.95-65.18 68.04-66.74 1.85-.08 3.67-.07 5.49-.02.19.01.38.01.57.01 1.72.07 3.42.21 5.11.4l.79.09c1.65.2 3.27.46 4.88.78.28.05.55.11.82.17 1.61.33 3.19.71 4.76 1.15l.71.21c.54.16 1.07.3 1.6.47 8.88 2.82 17.91-3.88 17.91-13.2v-77.81h-136.15c-8.96 0-15.6-8.4-13.42-17.09.03-.12.05-.25.08-.38.23-.92.41-1.86.6-2.79.14-.7.3-1.39.43-2.1.17-.99.29-1.99.42-2.99.09-.67.2-1.34.27-2.02.11-1.12.16-2.25.22-3.39.03-.58.09-1.14.11-1.72.05-1.72.04-3.45-.04-5.2-.49-11.27-3.67-21.92-8.9-31.3a74.36 74.36 0 0 0-3.38-5.47 73.447 73.447 0 0 0-5.93-7.57c-7.14-7.95-16.02-14.32-26.02-18.46-1-.41-2.01-.81-3.03-1.17-2.04-.74-4.13-1.38-6.25-1.93-4.25-1.1-8.64-1.81-13.15-2.09-41.48-2.6-75.93 30.27-75.93 71.19 0 1.53.05 3.06.15 4.57.03.51.1 1 .14 1.5.08 1 .16 2 .29 2.99.08.59.18 1.17.27 1.76.13.88.26 1.77.43 2.64.12.62.27 1.23.4 1.84.16.71.29 1.43.47 2.13 2.18 8.67-4.5 17.05-13.44 17.05H948.09v259.97c0 39 31.61 70.61 70.61 70.61h366.92v-90.36c-.01-9.45-9.21-15.93-18.22-13.11z" class="st12"/><linearGradient id="d" x1="1261.3" x2="1261.3" y1="509.75" y2="509.75" gradientUnits="userSpaceOnUse"><stop offset="0" stop-color="#fff" stop-opacity=".4"/><stop offset="1" stop-color="#35416D"/></linearGradient><path d="M1261.3 509.75" style="clip-path:url(#a);fill:url(#d)"/><path d="M1679.5 523.77c-88.06-136.51-188.07-213.16-214.26-231.89-3.94-2.82-9.1-2.72-12.94.25-25.54 19.73-122.94 100.25-206.35 240.21l434.06-8.1" class="st6"/><g style="opacity:.3"><linearGradient id="c" x1="1395" x2="1719.1" y1="324.17" y2="324.17" gradientTransform="rotate(41.161 1357.06 343.516)" gradientUnits="userSpaceOnUse"><stop offset="0" stop-color="#fff" stop-opacity=".4"/><stop offset="1" stop-color="#fff"/></linearGradient><path d="M1522.9 586.57c57.74-9.57 111.06-31.33 157.04-62.33-88.06-136.51-188.07-213.16-214.26-231.89-3.94-2.82-9.1-2.72-12.94.25-.8.62-1.68 1.3-2.62 2.04 13.83 30.26 59.48 139.76 72.78 291.93z" style="fill:url(#c)"/></g><path d="M1465.9 1404.7c23.58 49.57 47.74 170.49-14.04 453.36-1.09 5.17-5.42 7.55-9.59 7.33-3.94-.13-7.81-2.62-8.93-7.39-62.67-283.08-38.91-404.01-15.44-453.38 4.7-9.94 13.82-15 23.29-15.16 0 0 .08-.08.24-.07 9.78-.15 19.56 5.06 24.47 15.31z" class="st6"/><linearGradient id="b" x1="868.3" x2="1265.6" y1="1654" y2="1233.6" gradientTransform="matrix(.5571 -.524 .5263 .5595 111.77 1351.5)" gradientUnits="userSpaceOnUse"><stop offset="0" stop-color="#fff" stop-opacity=".4"/><stop offset="1" stop-color="#fff"/></linearGradient><path d="M1465.9 1404.7c23.58 49.57 47.74 170.49-14.04 453.36-1.09 5.17-5.42 7.55-9.59 7.33l-1.08-475.93s.08-.08.24-.07c9.78-.15 19.56 5.06 24.47 15.31z" style="opacity:.3;fill:url(#b)"/><path d="M1594.2 923.96c-.04 71.15-57.74 128.8-128.89 128.76s-128.8-57.74-128.76-128.89 57.74-128.8 128.89-128.76c71.15.03 128.8 57.74 128.76 128.89z" class="st6"/><path d="M1557.6 923.91a96.775 96.775 0 0 1-3.77 26.2 89.318 89.318 0 0 1-7.16 17.25c-1.62 3-3.31 5.92-5.3 8.69-6.55 9.72-14.89 18-24.69 24.41-14.56 9.85-32.28 15.56-51.2 15.6-50.95-.03-92.24-41.26-92.21-92.21.01-17.77 5.02-34.32 13.68-48.39 6.1-9.88 14.07-18.56 23.43-25.44 2.66-2.05 5.54-4.03 8.56-5.69 5.28-3.19 11.01-5.77 17.02-7.72 9.25-3.23 19.22-4.9 29.59-4.89 50.93.02 92.15 41.33 92.05 92.19z" class="st1"/><path d="M1541.3 976.04c-6.55 9.72-14.89 18-24.69 24.41l-129.73-125c6.1-9.88 14.07-18.56 23.43-25.44l130.99 126.03zM1553.8 950.11a89.318 89.318 0 0 1-7.16 17.25l-127.73-123.04c5.28-3.19 11.01-5.77 17.02-7.72l117.87 113.51z" class="st17"/><path d="M1869.8 708.33s81.38-80.43 103.05-108.9c18.02-23.68 54.4-88.44 68.21-113.35 3.16-5.7 1.66-12.86-3.53-16.81l-86.04-65.49c-.71-.61-1.44-1.21-2.2-1.79l-127.56-97.1c-5.77-4.39-14.01-3.27-18.4 2.49l-18.95 24.9-12.97 17.04-11.45 15.04c-7.49 9.84-5.63 23.97 4.29 31.34.72.54 1.44 1.1 2.14 1.68 18.36 15.31 22.44 42.42 9.42 62.42-.19.29-.39.57-.6.84l-2.96 3.89c-.2.26-.4.52-.62.76-16.34 18.65-44.56 21.73-64.58 6.48-.07-.05-.13-.1-.2-.15-9.9-7.61-24.04-5.91-31.6 4.03l-1.04 1.37-2.72 3.58-29.04 38.15c-4.39 5.77-3.27 14.01 2.49 18.4l30.86 23.49c4.94 3.76 4.85 11.27-.23 14.84-.3.21-.6.44-.9.66-.13.1-.27.19-.4.29-.87.65-1.71 1.34-2.54 2.06-.14.12-.28.25-.42.37-.82.73-1.61 1.49-2.39 2.28-.12.13-.24.26-.37.38-.78.82-1.54 1.67-2.28 2.55l-.24.3c-.76.94-1.51 1.91-2.21 2.92-13.76 19.79-10.31 47.34 7.94 63.09 1.31 1.13 2.66 2.18 4.05 3.14a47.21 47.21 0 0 0 20.29 8c1.31.19 2.62.31 3.93.39 1.93.12 3.87.12 5.8 0 1.1-.07 2.2-.18 3.29-.33.77-.1 1.53-.22 2.29-.36 1.18-.21 2.36-.46 3.53-.76 2.3-.6 4.55-1.37 6.75-2.31.97-.41 1.91-.87 2.86-1.35 1.2-.61 2.38-1.26 3.52-1.97 4.78-2.97 9.12-6.85 12.73-11.6.74-.98 1.44-1.97 2.1-2.99.22-.34.41-.69.62-1.03.42-.68.84-1.36 1.22-2.06.23-.42.42-.85.64-1.28.32-.63.65-1.26.94-1.9.21-.46.38-.93.57-1.4.26-.62.52-1.23.75-1.85.01-.03.03-.06.04-.09 2.15-5.92 9.3-8.19 14.32-4.37l107.8 82.07z" class="st18"/><path d="M2052.1 1668.1c.07 1.29 2.01 7.55 1.33 8.5-2.64 3.72-13.31 5.91-19.66 7.28-6.36 1.37-17.28 2.7-19.57 8.04-2.28 5.33-.07 14.28 1.67 15.04 1.73.76 14.76 3.36 19.92 4.2s52.89-3.6 56.4-6.06c3.52-2.46-.75-33.85-5.06-35.84-4.3-2-35.03-1.16-35.03-1.16zM2202.9 1668.1c-.07 1.29-2.01 7.55-1.33 8.5 2.64 3.72 13.31 5.91 19.66 7.28 6.36 1.37 17.28 2.7 19.57 8.04 2.28 5.33.07 14.28-1.67 15.04-1.73.76-14.76 3.36-19.92 4.2s-52.89-3.6-56.4-6.06c-3.52-2.46.75-33.85 5.06-35.84 4.3-2 35.03-1.16 35.03-1.16z" class="st19"/><path d="M2155.8 1086.8c-17.83-.7-41.16-1.19-55.41 11.47s-21.82 34.27-39.1 51.55-37.47 17.07-39.96 24.84-2.17 50.77 16.2 47.53c18.36-3.25 62.86-25.93 67.82-28.09s-45.14 100.99-49.46 112.05c-4.32 11.07-3.31 23.2 5.4 28.35s154.24 17.28 167.84 8.64 4.32-33.62 0-64.33 32.28-47.98 38.08-56.62-4.83-113.35-9.8-118.24c-4.96-4.89-27.89-18.52-39.65-12.24-11.76 6.27-39.57 26.55-48.34 19.65s-13.62-24.56-13.62-24.56z" class="st20"/><path d="m1913.07 804.104 9.902.603-55.601 912.844-9.902-.603zM2120.18 816.713l9.901.603-55.6 912.844-9.903-.603z" class="st21"/><path d="m2097 815.22-6.76 111.09-184.08-11.21 6.76-111.09-23.02-1.4-55.58 912.8 23.02 1.4 5.78-95 184.08 11.21-5.78 95 23.02 1.4 55.58-912.8-23.02-1.4zm-48.09 789.84-184.08-11.21 8.63-141.73 184.08 11.21-8.63 141.73zm10.33-169.69-184.08-11.21 8.63-141.73 184.08 11.21-8.63 141.73zm10.33-169.69-184.08-11.21 8.63-141.73 184.08 11.21-8.63 141.73zM2079.9 1096l-184.08-11.21 8.63-141.73 184.08 11.21-8.63 141.73z" style="fill:#3e89cc"/><path d="m1904.894 938.075 184.088 11.213-.31 5.09-184.088-11.212zM1894.588 1107.803l184.088 11.213-.31 5.091-184.088-11.213zM1884.182 1277.506l184.088 11.212-.31 5.091-184.088-11.213zM1873.78 1447.617l184.087 11.213-.31 5.09-184.088-11.212zM1863.478 1617.026l184.088 11.213-.31 5.09-184.088-11.212z" class="st21"/><path d="M2042.3 1182.6c6.68 3.99 11.31 30.95-12.36 35.05s-59.32 3.97-63.05 10.26-6.9 23.84-9.32 26.44-16.31 6.69-26.87 9.19-9.23-26.76-4.78-33.49 17.92-13.57 25.36-18.98 33.78-20.3 40.17-21.28c6.37-.98 39.51-13.95 50.85-7.19zM2208.8 1249.1c4.31-6.48-3.13-32.8-26.25-26.3s-55.24 21.98-61.32 17.91c-6.07-4.07-16.5-18.54-19.81-19.84s-17.6.99-28.21 3.28c-10.61 2.3 3.2 28.13 10.11 32.28 6.91 4.16 22.02 4.53 31.06 6.2s39.23 3.76 45.42 1.9c6.19-1.87 41.69-4.44 49-15.43z" class="st3"/><path d="M922.63 1713.4H711.69c-18.1 0-32.77-14.67-32.77-32.77V1028.1c0-18.1 14.67-32.77 32.77-32.77h210.93c18.1 0 32.77 14.67 32.77 32.77v652.53c.01 18.1-14.66 32.77-32.76 32.77z" class="st20"/><path d="M646.15 1713.4H435.21c-18.1 0-32.77-14.67-32.77-32.77V1469.7c0-18.1 14.67-32.77 32.77-32.77h210.93c18.1 0 32.77 14.67 32.77 32.77v210.93c.01 18.1-14.66 32.77-32.76 32.77z" class="st18"/><path d="M822.12 749.86c4.25 8.87 21.55 31.53 27.78 34.48 6.23 2.96 62.84-15.76 65.9-22.66s4.83-21.68 8.73-23.65 27.74-1.56 24.1 10.84c-3.72 12.64-15.24 26.42-25.16 25.12s-61.72 36.95-73.56 39.9c-16.09-2.96-61.8-31.24-63.93-43.21-2.13-11.95 36.14-20.82 36.14-20.82z" class="st23"/><path d="m986.91 843.65-71.65-33.96c-3.22-1.53-4.61-5.41-3.08-8.63l43.21-97.95c1.53-3.22 5.41-4.61 8.63-3.08l81.18 20.65c3.22 1.53 4.61 5.41 3.08 8.63l-52.73 111.26c-1.54 3.22-5.42 4.61-8.64 3.08z" class="st19"/><path d="m984.72 829.45-57.08-27.06c-3.22-1.53-4.61-5.41-3.08-8.63l33.02-76.46c1.53-3.22 7.3-7.28 10.52-5.75l64.72 16.41c3.22 1.53 4.61 5.41 3.08 8.63l-42.55 89.77c-1.53 3.23-5.41 4.62-8.63 3.09z" style="fill:#e2e2e2"/><path d="m995.79 718.58 19.81 5.01-84.35 56.04 8.02-16.92zM1022.9 725.36l10.91 3.09s4.88 2.25 2.08 8.16-8.2 17.29-8.2 17.29l-86.09 55.12-14.97-7.1s-4.48-1.94-2.08-8.16c2.86-6.05 98.35-68.4 98.35-68.4z" class="st25"/><path d="M898.16 795.2c4.32 9.72 21.89 34.56 28.23 37.8 6.33 3.24 63.84-17.28 66.95-24.84 3.1-7.56 4.9-23.76 8.86-25.92s28.19-1.71 24.48 11.88c-3.78 13.86-15.48 28.96-25.56 27.54s-62.71 40.5-74.73 43.74c-16.35-3.24-62.79-34.24-64.95-47.36s36.72-22.84 36.72-22.84z" class="st23"/><path d="M952.5 932.27c16.88 14 53.55 37.58 55.46 47.75s-28.51 145-31.65 169.72c-3.13 24.73-10.75 50.62-2.26 53.56s1.06 8.7-12.46 4.6.35-44.13.17-63.21-20.5-85.9-17.88-101.3 12.99-41.39 14.71-46.38-29.74-16.18-48.42-21.01c-18.68-4.81 42.33-43.73 42.33-43.73z" style="fill:#edb296"/><path d="M954.95 1160.6c6.16-12.8 23.72-3.69 24.63 6.99 3.39 39.68 41.91 27.5 40.83 41.6-.65 8.5-18.03 22.33-48 5.47-17.94-10.09-41.79-3.34-37.35-18.66 5.92-20.43 15.8-26.91 19.89-35.4z" class="st27"/><path d="M878.45 628.01c2.53 5.47-2.43 31.47-5.31 35.25-2.68 3.51 4.13 16.9 5.04 19.26s-8.81 5.12-8.81 5.12-7.31 8.95-7.69 11.44-1.32 13.08-8.06 11.83c-3.29-.61-11.45-4.27-17.98-6.56-2.93-1.03-5.25-2.05-5.98-3.05-2.37-3.22-13.34-18.84-13.82-24.02-.48-5.17 8.97-38.06 14.22-43.3s19.64-12.58 24.93-13.68c5.28-1.1 23.46 7.71 23.46 7.71zM951.78 942.1c20.54 7.7 62.9 17.97 68.03 26.96s20.54 146.34 25.67 170.73 6.42 51.35 15.4 51.35 3.85 7.88-10.27 8.43-14.12-41.81-20.54-59.78-47.5-74.45-50.06-89.86c-2.57-15.4-1.28-43.36-1.28-48.64s-33.39-5.55-52.63-3.99 25.68-55.2 25.68-55.2z" class="st23"/><path d="M752.81 908.44s-46.21 69.32 20.54 103.98c68.29 64.67 52.52 148.22 97.81 154.67 58.77 8.37 155.9-216.72 122.18-224.98-6.23-1.53-148.1-28.52-148.1-28.52l-92.43-5.15z" class="st18"/><path d="M828.32 725.36s-24.48 1.08-24.12 0l10.44-31.32s18.61-7.56 18.67-6.84c.05.72 4.73 9.36 4.73 9.36l-9.72 28.8z" class="st23"/><path d="M855.86 657.86c-2.88-.23 14.59-1.08 15.66 2.88-.72 3.42-3.28 4.86-4.07 5.58s-4.93-7.92-11.59-8.46z" class="st4"/><path d="M1028.8 1172.1c1.63-14.11 21.2-11.25 25.56-1.46 16.2 36.38 48.6 12.26 52.2 25.94 2.17 8.25-9.72 27-43.56 20.88-20.26-3.66-40.58 10.52-41.4-5.4-1.09-21.24 6.12-30.6 7.2-39.96z" class="st27"/><path d="M797.96 725.36c16.28-3.65 40.65-12.48 54.77-3.5s62.06 79.46 51.79 87.16-33.29 24.53-37.07 21.05c-17.54-16.17-17.17 5.81-20.69 27.41-2.7 16.52 5.9 54.05-1.52 56.09-67.91 18.7-92.42-5.13-92.42-5.13s-3.55-92.87 9.15-146.48c7.5-31.71 31.5-35.59 35.99-36.6z" class="st19"/><path d="M900.92 616.88c.9 4.21 0 24.07-8.64 30.07s-19.92-7.84-28.56-7.84-36 11.33-36.48 23.97 4.31 20.36-5.28 36.76 21.95 48.99-21.72 64.01c-21.96 7.55-37.44 3.33-54.72-25.82-17.98-30.34.05-39.82 22.32-54.26 23.04-14.93 9.48-32.9 10.92-38.13s17.28-39.22 55.2-38.35c12.03.28 20.88 3.49 20.88 3.49s43.05-8.13 46.08 6.1z" class="st27"/><path d="M1982.9 1094.7c-2.23-1.58-5.07-4.29-2.73-8.59 2.34-4.29 10.93-8.59 15.22-11.71s22.25-19.52 21.08-23.03c-1.12-3.35 17.57-4.29 19.13-6.25 1.56-1.95 6.07 4.13 7.39 6.64 0 0 9.49 9.76 1.42 16.26s-21.86 8.59-22.9 10.41-16.91 14.31-20.56 16.26c-3.64 1.96-10.86 5.08-18.05.01z" class="st20"/><path d="M2004.5 699.05c-10.99 10.61-119.96 65.36-126.23 83.28-6.26 17.92-6.59 20.98 3.31 40.92s41.41 69.95 47.12 74.58 28.79 19.28 32.82 13.05c2.29-3.54-17.12-99.45-18.34-98.12s98.65-40.41 106.41-42.3c7.77-1.9 15.37-85.29 15.37-85.29l-60.46 13.88z" class="st2"/><path d="M2048 855.23c15.8-19.86 22.35-75.33 31.05-81.35s22.85-16.75 26.4-28.8-2.88-59.91-2.88-59.91h-51.34l-26.6 73.46s-23.74 70.79-27.71 103.28c-4.34 35.52 5.91 129.72 5.91 129.72s5.17 45.67 16.25 55.22c0 0 18.49.49 20.05-3.34 1.58-3.83 8.87-188.28 8.87-188.28z" class="st2"/><path d="m1959.1 918.15-37.59-1.95c-6.24 0-4.82-4.03-4.82-10.27 0 0 1.64-4.25 7.73-5.34 0 0 15.64-1.58 20.13-2.15 4.56-.57 15.06-5.64 15.06-5.64 3.33.54 7.11 14.04 4.59 20.97-2.39 6.58-5.1 4.38-5.1 4.38" class="st20"/><path d="M2124.2 648.62c-3.54 1.36-9.95 2.84-17.48 3.65-4.78.44-10.09.69-15.45.47-8.7-.35-17.48-2.01-24.56-5.73-16.64-8.79-18.4-24.8-19.63-26.32 2.2.04 13.64.33 25.03.08 12.28-.23 24.52-1.07 24.98-3.5-2.07-3.97-3.76-8.66-5.09-13.93-7.98-30.5-4.7-78.83-1.94-100.95 9.67 2.22 25.39 6.1 29.36 13.4 16.8 31.2 19.79 127.16 4.78 132.83z" class="st28"/><path d="M2125.1 542.02c-.53 8.57-6.98 81.58-11.63 108.97-4.78.44-10.09.69-15.45.47-9.33-10.62-21.12-25.99-27.59-27.61l2.75-3.64c1.91.04 3.82-.16 5.68-.72 8.09-2.16 15.26-9.24 19.9-17.43 4.38-7.72 6.52-16.5 5.11-23.15l21.23-36.89z" style="fill:#36b2ce"/><path d="M2077.3 492.3s-4.19-15.3-2-26.49 9.32-31.27 7.1-46.48c-2.23-15.21-21.07-28.22-41.31-26.65-20.25 1.57-26.53 20.82-30.12 31.98s-3.37 28.3-2.71 37.58 5.57 16.68 8.9 18.71 16.05-.31 18.23 2.15 3.58 16.81 3.58 16.81" class="st23"/><path d="M2091.8 421.89c-6.3 34.97-11.73 38.51-12.67 43.98-.94 5.46.54 6.03-2.29 7.29 0 0-27.6.17-33.37-.66-12.22-6.02-19.44-18.01-19.44-18.01s6.78-6.95 7.39-8.45c1.42-3.55-.38-7.88-1.94-10.23-3.59-5.38-8.3-2.25-8.94 2.8s-.13 3.45-1.45 4.08c-1.81.92-4.3.69-3.4-9.01.76-8.45 1.34-10.58 4.01-16.13 2.61-5.61 6.17-3.72 6.26-6.19.1-2.72-5.04-1.47-9.77-9.13-5.43-8.87-6.25-32.18 6.13-26.58 2.29 1.03 3.08 6.98 9.3 8.83 12.15 3.58 34.31 1.21 44.91 7.68 0-.01 18.24 13.28 15.27 29.73z" style="fill:#222b54"/><path d="M2009.2 432.63s-9 12.92-8.01 15.74 9.4 2.81 9.4 2.81" class="st23"/><path d="M2102.8 504.08c-4.55-4.71-14.2-11.26-20.9-16.47-9.87-7.68-52.38 13.6-53.97 13.7 0 0 .67 1.12 1.84 2.85-23.36 6.13-33.9 19.02-36.46 35.44-.3 1.86-.5 3.87-.7 5.98-.15 1.86-.26 3.87-.33 5.99l-.03 1.06c-.02.88-.04 1.78-.05 2.7-.37 27.85 3.64 73.45 4.94 102.78 1.34 30.42-15.66 32.75-5.51 41.4 2.67 2.27 10.64 3.03 21.73 2.37 3.29-.08 6.6-.39 9.86-.61 7.25-.47 14.51-.97 21.77-1.36 37.84-.82 50.62 8.01 56.94-.56 1.21-1.65 1.96-4.09 1.45-7.29-1.14-7.88-3.82-10.63-2.56-18.52 1.08-6.61 2.54-14.49 4.55-23.49 6.89-31.16 20.26-78.69 22.54-107.39 1.92-24.31-12.78-34.4-25.11-38.58zm-90.91 197.8c.38 0 .76 0 1.13-.01-.37.01-.75.01-1.13.01z" class="st28"/><path d="M1856.8 547.84c-1.76-2.49-2.13-8.22-6.57-14.14s-10.54-10.17-10.54-7.21.92 6.1 0 8.14-6.84 2.59-12.02.55-7.21-6.47-12.94-6.47-7.21 5.96-8.69 7.97 7.21 14.81 12.76 15.81c5.55.99 12.57 3.4 19.41 3.4s12.2 4.07 14.79 2.22 3.8-10.27 3.8-10.27z" class="st23"/><path d="M2026.5 501.3s-32.58 19.3-36.21 24.7-46.03 30.6-55.72 33.12-53.3-16.85-66.62-17.07c-13.32-.21-17.56 17.79-20.59 22.11s32.4 18.22 55.72 30.35 61.48-1.59 78.43-8.75 45.43-40.32 48.45-51.48c3.03-11.15-3.46-32.98-3.46-32.98z" class="st28"/></svg>